<svg xmlns="http://www.w3.org/2000/svg" xmlns:xlink="http://www.w3.org/1999/xlink" width="800" zoomAndPan="magnify" viewBox="0 0 600 599.999999" height="800" preserveAspectRatio="xMidYMid meet" version="1.0"><path fill="#727372" d="M 236.480469 138.285156 C 232.804688 138.285156 229.363281 139.445312 223.835938 139.210938 C 218.308594 138.980469 217.613281 139.90625 210.5 143.117188 C 203.382812 146.328125 199.675781 141.03125 194.84375 138.75 C 190.011719 136.433594 183.558594 134.613281 184.019531 132.757812 C 184.484375 130.90625 187.695312 131.601562 189.546875 131.601562 C 191.402344 131.601562 196.234375 132.992188 198.519531 132.757812 C 200.800781 132.527344 200.371094 132.527344 205.203125 132.0625 C 210.035156 131.601562 208.644531 131.367188 217.847656 133.453125 C 227.046875 135.539062 235.785156 133.453125 240.617188 133.453125 L 247.535156 135.769531 C 247.535156 135.769531 240.152344 138.285156 236.480469 138.285156 Z M 63.777344 160.957031 C 64.703125 163.472656 67.21875 174.296875 66.292969 179.359375 C 65.367188 184.421875 63.777344 192.234375 61.925781 199.152344 C 60.070312 206.070312 55.703125 219.640625 56.398438 226.292969 C 57.09375 232.976562 61.230469 239.398438 69.503906 245.621094 C 77.777344 251.84375 76.851562 244.925781 82.148438 254.820312 C 87.441406 264.71875 88.601562 265.875 93.664062 275.308594 C 98.730469 284.742188 93.664062 285.667969 105.613281 289.34375 C 117.5625 293.015625 130.699219 300.164062 135.070312 294.871094 C 139.4375 289.574219 138.511719 284.742188 139.4375 280.140625 C 140.367188 275.539062 141.953125 268.855469 143.34375 266.109375 C 144.734375 263.359375 136.226562 247.472656 136.425781 245.390625 C 136.660156 243.304688 137.121094 242.640625 137.121094 242.640625 C 137.121094 242.640625 146.324219 245.15625 156.683594 243.570312 C 167.042969 241.945312 168.628906 238.042969 173.695312 236.652344 C 178.757812 235.261719 179.222656 235.957031 183.128906 238.273438 C 187.03125 240.558594 187.03125 240.789062 187.03125 240.789062 C 187.03125 240.789062 186.570312 270.246094 185.644531 284.511719 C 184.714844 298.777344 186.105469 311.1875 187.960938 324.988281 C 189.8125 338.789062 185.210938 339.253906 185.644531 350.769531 C 186.105469 362.289062 190.707031 370.5625 190.707031 376.089844 C 190.707031 381.617188 189.316406 387.609375 190.707031 395.882812 C 192.097656 404.15625 191.171875 402.800781 193.453125 409.222656 C 195.769531 415.675781 195.769531 418.421875 196.199219 424.414062 C 196.664062 430.402344 199.875 446.257812 201.960938 459.164062 C 204.046875 472.039062 202.421875 474.355469 202.65625 481.472656 C 202.886719 488.589844 201.496094 492.992188 201.960938 494.578125 C 202.421875 496.203125 211.394531 497.09375 211.394531 497.09375 C 211.394531 497.09375 210.929688 502.855469 210.699219 504.675781 C 210.464844 506.527344 200.734375 514.105469 195.871094 519.039062 C 190.972656 523.96875 185.90625 526.980469 184.78125 527.445312 C 183.625 527.910156 174.71875 527.378906 172.402344 527.445312 C 170.121094 527.511719 168.828125 527.378906 167.339844 528.703125 C 165.851562 530.027344 165.851562 531.683594 166.347656 531.980469 C 166.875 532.277344 166.050781 533.003906 167.503906 534.261719 C 168.929688 535.519531 169.789062 535.421875 169.789062 535.421875 C 169.789062 535.421875 170.417969 536.214844 171.640625 537.042969 C 172.835938 537.839844 175.679688 538.53125 179.652344 538.433594 C 183.625 538.335938 185.246094 537.441406 185.578125 537.339844 C 185.90625 537.242188 192.261719 538.898438 197.953125 538.269531 C 203.648438 537.640625 214.171875 534.03125 217.152344 533.898438 C 220.128906 533.765625 227.609375 536.414062 235.917969 532.972656 C 244.191406 529.53125 242.171875 522.613281 241.84375 520.726562 C 241.511719 518.839844 237.40625 498.023438 238.003906 495.242188 C 238.566406 492.496094 247.4375 487.199219 259.382812 485.34375 C 271.332031 483.492188 267.425781 485.578125 273.183594 483.722656 C 278.945312 481.871094 279.640625 479.816406 279.640625 479.816406 C 279.640625 479.816406 262.394531 371.6875 260.542969 357.425781 C 258.6875 343.160156 251.804688 348.222656 256.867188 331.640625 C 261.933594 315.09375 258.722656 330.714844 262.394531 309.101562 C 266.070312 287.488281 280.335938 244.230469 285.398438 237.3125 C 290.460938 230.394531 293.671875 227.648438 299.199219 223.046875 C 304.726562 218.449219 308.863281 213.847656 315.78125 207.855469 C 322.699219 201.867188 338.320312 182.074219 357.648438 176.117188 C 376.980469 170.125 384.789062 169.664062 393.527344 163.703125 C 402.265625 157.714844 399.980469 155.894531 412.394531 148.976562 C 424.804688 142.058594 460.253906 136.566406 470.378906 130.109375 C 480.507812 123.65625 477.296875 123.195312 483.949219 122.066406 C 490.636719 120.910156 489.246094 114.71875 489.246094 114.71875 L 489.015625 111.277344 C 489.015625 111.277344 498.546875 108.066406 507.183594 107.703125 C 515.824219 107.371094 517.777344 108.167969 521.21875 107.605469 C 524.660156 107.042969 525.355469 105.519531 526.511719 104.394531 C 527.671875 103.234375 547.792969 95.886719 555.835938 94.398438 C 563.878906 92.910156 564.34375 94.066406 567.585938 90.726562 C 570.796875 87.382812 571.492188 84.867188 569.671875 81.753906 C 567.820312 78.644531 566.695312 78.875 566.328125 76.59375 C 566 74.277344 566 73.25 565.402344 71.859375 C 564.839844 70.46875 563.515625 70.867188 563.117188 70.203125 C 562.722656 69.507812 561.695312 66.464844 560.007812 65.902344 C 558.351562 65.339844 558.054688 65.371094 558.054688 65.371094 C 558.054688 65.371094 557.757812 63.484375 556.664062 63.054688 C 555.574219 62.660156 554.777344 62.425781 554.777344 62.425781 C 554.777344 62.425781 554.449219 60.804688 551.964844 61.234375 C 549.484375 61.632812 536.046875 75.730469 531.3125 79.539062 C 526.613281 83.34375 523.601562 82.878906 517.609375 85.296875 C 511.621094 87.714844 506.917969 90.03125 504.503906 90.460938 C 502.085938 90.921875 485.40625 92.742188 485.40625 92.742188 C 485.40625 92.742188 482.757812 86.652344 478.621094 80.199219 C 474.484375 73.746094 468.957031 66.628906 463.894531 68.449219 C 458.828125 70.304688 437.878906 79.96875 423.183594 87.316406 C 408.453125 94.664062 378.996094 99.03125 363.375 103.863281 C 347.722656 108.695312 343.121094 114.457031 333.6875 120.644531 C 324.253906 126.867188 309.988281 139.742188 308.367188 140.667969 C 306.746094 141.59375 286.292969 138.253906 282.816406 139.644531 C 279.375 141.03125 263.257812 141.03125 262.460938 140.800781 C 261.667969 140.570312 255.214844 138.152344 256.007812 138.152344 C 256.800781 138.152344 267.855469 136.996094 276.828125 135.636719 C 285.796875 134.246094 287.285156 133.320312 293.738281 134.148438 C 300.191406 134.941406 298.671875 135.636719 303.964844 134.050781 C 309.261719 132.425781 318.332031 122.101562 318.332031 122.101562 C 318.332031 122.101562 318 106.347656 318 102.773438 C 318 99.199219 319.15625 96.914062 319.15625 96.914062 C 319.15625 96.914062 324.453125 99.496094 326.871094 100.589844 C 329.285156 101.679688 333.886719 100.257812 336.765625 100.125 C 339.644531 100.023438 339.480469 95.753906 341.5 93.871094 C 343.515625 91.984375 344.542969 91.519531 343.914062 90.59375 C 343.285156 89.664062 342.359375 88.972656 342.359375 88.972656 C 342.359375 88.972656 344.378906 89.203125 344.773438 87.8125 C 345.171875 86.421875 344.476562 85.394531 344.773438 85.097656 C 345.074219 84.800781 346.398438 85.03125 346.429688 83.210938 C 346.496094 81.359375 345.503906 79.636719 345.902344 79.074219 C 346.296875 78.511719 337.691406 68.316406 334.847656 68.316406 C 332 68.316406 324.320312 74.308594 323.558594 74.640625 C 322.796875 74.96875 316.246094 75.167969 316.246094 75.167969 C 316.246094 75.167969 302.90625 77.917969 290.03125 78.378906 C 277.15625 78.84375 275.765625 79.769531 270.007812 80.234375 C 264.25 80.695312 252.996094 82.515625 248.824219 83.675781 C 244.6875 84.832031 237.074219 83.90625 231.351562 84.832031 C 225.589844 85.761719 214.570312 86.6875 204.210938 86.6875 C 193.851562 86.6875 186.734375 82.78125 175.21875 84.402344 C 163.699219 86.023438 158.203125 89.003906 151.984375 90.164062 C 145.761719 91.320312 123.453125 106.941406 120.472656 108.796875 C 117.496094 110.648438 109.652344 111.3125 109.652344 111.3125 C 109.652344 111.3125 107.699219 103.203125 106.605469 101.183594 C 105.515625 99.164062 102.335938 98.667969 101.839844 97.90625 C 101.308594 97.144531 100.847656 95.65625 101.308594 94 C 101.773438 92.347656 103.03125 89.929688 101.640625 88.144531 C 100.25 86.355469 92.375 71.695312 85.488281 69.277344 C 78.574219 66.863281 66.292969 62.722656 53.386719 68.484375 C 40.511719 74.242188 32.898438 88.277344 30.613281 101.84375 C 28.332031 115.414062 37.730469 123.226562 43.488281 128.289062 C 49.25 133.355469 51.433594 133.023438 54.542969 137.390625 C 57.65625 141.761719 62.949219 145.105469 62.816406 146.261719 C 62.71875 147.421875 60.632812 149.835938 59.9375 151.195312 C 59.242188 152.582031 57.058594 154.171875 57.289062 155.464844 C 57.589844 156.589844 63.777344 160.957031 63.777344 160.957031 Z M 63.777344 160.957031 " fill-opacity="1" fill-rule="evenodd"/></svg>